<svg width="110" height="26" viewBox="0 0 110 26" fill="none" xmlns="http://www.w3.org/2000/svg">
<path d="M0 24.832V2.656H14.976V6.848H4.992V11.2H13.856V15.296H4.992V20.64H15.712V24.832H0Z" fill="#322153"/>
<path d="M17.9112 16.416C17.9112 15.2 18.1032 14.0587 18.4872 12.992C18.8926 11.904 19.4686 10.9653 20.2153 10.176C20.9619 9.36533 21.8686 8.72533 22.9352 8.256C24.0019 7.78667 25.2179 7.552 26.5833 7.552C27.4792 7.552 28.3006 7.63733 29.0473 7.808C29.7939 7.95733 30.5193 8.18133 31.2233 8.48L30.2313 12.288C29.7833 12.1173 29.2926 11.968 28.7593 11.84C28.2259 11.712 27.6286 11.648 26.9673 11.648C25.5593 11.648 24.5033 12.0853 23.7992 12.96C23.1166 13.8347 22.7752 14.9867 22.7752 16.416C22.7752 17.9307 23.0953 19.104 23.7353 19.936C24.3966 20.768 25.5379 21.184 27.1593 21.184C27.7353 21.184 28.3539 21.1307 29.0153 21.024C29.6766 20.9173 30.2846 20.7467 30.8393 20.512L31.5113 24.416C30.9566 24.6507 30.2633 24.8533 29.4313 25.024C28.5993 25.1947 27.6819 25.28 26.6793 25.28C25.1433 25.28 23.8206 25.056 22.7113 24.608C21.6019 24.1387 20.6846 23.5093 19.9592 22.72C19.2552 21.9307 18.7326 21.0027 18.3913 19.936C18.0713 18.848 17.9112 17.6747 17.9112 16.416Z" fill="#322153"/>
<path d="M49.6427 16.384C49.6427 17.7067 49.4507 18.9227 49.0667 20.032C48.6828 21.12 48.1281 22.0587 47.4028 22.848C46.6774 23.616 45.8027 24.2133 44.7788 24.64C43.7761 25.0667 42.6454 25.28 41.3867 25.28C40.1494 25.28 39.0187 25.0667 37.9948 24.64C36.9921 24.2133 36.1281 23.616 35.4027 22.848C34.6774 22.0587 34.1121 21.12 33.7067 20.032C33.3014 18.9227 33.0988 17.7067 33.0988 16.384C33.0988 15.0613 33.3014 13.856 33.7067 12.768C34.1334 11.68 34.7094 10.752 35.4347 9.984C36.1814 9.216 37.0561 8.61867 38.0588 8.192C39.0827 7.76533 40.1921 7.552 41.3867 7.552C42.6027 7.552 43.7121 7.76533 44.7148 8.192C45.7388 8.61867 46.6134 9.216 47.3387 9.984C48.0641 10.752 48.6294 11.68 49.0348 12.768C49.4401 13.856 49.6427 15.0613 49.6427 16.384ZM44.7788 16.384C44.7788 14.912 44.4801 13.76 43.8828 12.928C43.3068 12.0747 42.4748 11.648 41.3867 11.648C40.2987 11.648 39.4561 12.0747 38.8587 12.928C38.2614 13.76 37.9627 14.912 37.9627 16.384C37.9627 17.856 38.2614 19.0293 38.8587 19.904C39.4561 20.7573 40.2987 21.184 41.3867 21.184C42.4748 21.184 43.3068 20.7573 43.8828 19.904C44.4801 19.0293 44.7788 17.856 44.7788 16.384Z" fill="#322153"/>
<path d="M60.0563 25.152C58.6696 25.1307 57.5389 24.9813 56.6642 24.704C55.8109 24.4267 55.1283 24.0427 54.6162 23.552C54.1256 23.04 53.7843 22.432 53.5923 21.728C53.4216 21.0027 53.3363 20.192 53.3363 19.296V0.768L58.1043 0V18.336C58.1043 18.7627 58.1362 19.1467 58.2002 19.488C58.2642 19.8293 58.3816 20.1173 58.5522 20.352C58.7443 20.5867 59.0109 20.7787 59.3522 20.928C59.6936 21.0773 60.1523 21.1733 60.7283 21.216L60.0563 25.152Z" fill="#322153"/>
<path d="M62.6613 16.544C62.6613 15.0507 62.8852 13.7493 63.3332 12.64C63.8026 11.5093 64.4106 10.5707 65.1572 9.824C65.9039 9.07733 66.7572 8.512 67.7172 8.128C68.6986 7.744 69.7012 7.552 70.7253 7.552C73.1146 7.552 75.0026 8.288 76.3893 9.76C77.7759 11.2107 78.4693 13.3547 78.4693 16.192C78.4693 16.4693 78.4586 16.7787 78.4372 17.12C78.4159 17.44 78.3946 17.728 78.3733 17.984H67.5573C67.6639 18.9653 68.1226 19.744 68.9333 20.32C69.7439 20.896 70.8319 21.184 72.1973 21.184C73.0719 21.184 73.9252 21.1093 74.7572 20.96C75.6106 20.7893 76.3039 20.5867 76.8372 20.352L77.4772 24.224C77.2213 24.352 76.8799 24.48 76.4532 24.608C76.0266 24.736 75.5466 24.8427 75.0133 24.928C74.5013 25.0347 73.9466 25.12 73.3493 25.184C72.7519 25.248 72.1546 25.28 71.5573 25.28C70.0426 25.28 68.7199 25.056 67.5892 24.608C66.4799 24.16 65.5519 23.552 64.8053 22.784C64.0799 21.9947 63.5359 21.0667 63.1732 20C62.8319 18.9333 62.6613 17.7813 62.6613 16.544ZM73.8613 14.72C73.8399 14.3147 73.7653 13.92 73.6373 13.536C73.5306 13.152 73.3493 12.8107 73.0933 12.512C72.8586 12.2133 72.5493 11.968 72.1653 11.776C71.8026 11.584 71.3439 11.488 70.7893 11.488C70.2559 11.488 69.7973 11.584 69.4133 11.776C69.0293 11.9467 68.7092 12.1813 68.4532 12.48C68.1973 12.7787 67.9946 13.1307 67.8453 13.536C67.7173 13.92 67.6213 14.3147 67.5573 14.72H73.8613Z" fill="#322153"/>
<path d="M81.9887 3.808L86.7568 3.04V8H92.4847V11.968H86.7568V17.888C86.7568 18.8907 86.9274 19.6907 87.2688 20.288C87.6314 20.8853 88.3461 21.184 89.4128 21.184C89.9248 21.184 90.4474 21.1413 90.9808 21.056C91.5354 20.9493 92.0368 20.8107 92.4847 20.64L93.1568 24.352C92.5807 24.5867 91.9408 24.7893 91.2367 24.96C90.5327 25.1307 89.6688 25.216 88.6448 25.216C87.3434 25.216 86.2661 25.0453 85.4128 24.704C84.5594 24.3413 83.8767 23.8507 83.3647 23.232C82.8527 22.592 82.4901 21.824 82.2767 20.928C82.0847 20.032 81.9887 19.04 81.9887 17.952V3.808Z" fill="#322153"/>
<path d="M102.174 21.504C102.644 21.504 103.092 21.4933 103.519 21.472C103.945 21.4507 104.286 21.4187 104.543 21.376V17.76C104.351 17.7173 104.062 17.6747 103.678 17.632C103.294 17.5893 102.942 17.568 102.622 17.568C102.174 17.568 101.748 17.6 101.342 17.664C100.958 17.7067 100.617 17.8027 100.318 17.952C100.02 18.1013 99.7852 18.304 99.6145 18.56C99.4438 18.816 99.3585 19.136 99.3585 19.52C99.3585 20.2667 99.6038 20.7893 100.094 21.088C100.606 21.3653 101.3 21.504 102.174 21.504ZM101.79 7.552C103.198 7.552 104.372 7.712 105.311 8.032C106.249 8.352 106.996 8.81067 107.55 9.408C108.126 10.0053 108.532 10.7307 108.767 11.584C109.001 12.4373 109.118 13.3867 109.118 14.432V24.352C108.436 24.5013 107.487 24.672 106.271 24.864C105.054 25.0773 103.582 25.184 101.854 25.184C100.767 25.184 99.7745 25.088 98.8785 24.896C98.0038 24.704 97.2465 24.3947 96.6065 23.968C95.9665 23.52 95.4758 22.944 95.1345 22.24C94.7932 21.536 94.6225 20.672 94.6225 19.648C94.6225 18.6667 94.8145 17.8347 95.1985 17.152C95.6038 16.4693 96.1372 15.9253 96.7985 15.52C97.4598 15.1147 98.2172 14.8267 99.0705 14.656C99.9238 14.464 100.809 14.368 101.727 14.368C102.345 14.368 102.889 14.4 103.358 14.464C103.849 14.5067 104.244 14.5707 104.543 14.656V14.208C104.543 13.3973 104.297 12.7467 103.807 12.256C103.316 11.7653 102.463 11.52 101.246 11.52C100.436 11.52 99.6358 11.584 98.8465 11.712C98.0572 11.8187 97.3745 11.9787 96.7985 12.192L96.1905 8.352C96.4678 8.26667 96.8092 8.18133 97.2145 8.096C97.6412 7.98933 98.0998 7.904 98.5905 7.84C99.0812 7.75467 99.5932 7.69067 100.127 7.648C100.681 7.584 101.236 7.552 101.79 7.552Z" fill="#322153"/>
</svg>
